<mxfile host="app.diagrams.net" agent="Mozilla/5.0 (X11; Ubuntu; Linux x86_64; rv:131.0) Gecko/20100101 Firefox/131.0" version="24.7.17">
  <diagram name="Page-1" id="BiQQQq4fD9bIqkAkqIk_">
    <mxGraphModel dx="2954" dy="2323" grid="1" gridSize="10" guides="1" tooltips="1" connect="1" arrows="1" fold="1" page="1" pageScale="1" pageWidth="1920" pageHeight="1200" math="0" shadow="0">
      <root>
        <mxCell id="0" />
        <mxCell id="1" parent="0" />
        <mxCell id="bSTVENKfb5ki0dsixFxO-47" style="edgeStyle=orthogonalEdgeStyle;rounded=0;orthogonalLoop=1;jettySize=auto;html=1;exitX=0.5;exitY=1;exitDx=0;exitDy=0;entryX=1;entryY=0.5;entryDx=0;entryDy=0;curved=1;" parent="1" source="bSTVENKfb5ki0dsixFxO-10" target="dM4KhiI33vJd0EmOxdA6-10" edge="1">
          <mxGeometry relative="1" as="geometry" />
        </mxCell>
        <mxCell id="bSTVENKfb5ki0dsixFxO-10" value="" style="ellipse;whiteSpace=wrap;html=1;fillColor=none;rounded=1;" parent="1" vertex="1">
          <mxGeometry x="765" y="-220" width="375" height="250" as="geometry" />
        </mxCell>
        <mxCell id="dM4KhiI33vJd0EmOxdA6-66" style="edgeStyle=orthogonalEdgeStyle;rounded=1;orthogonalLoop=1;jettySize=auto;html=1;exitX=0.5;exitY=0;exitDx=0;exitDy=0;entryX=0;entryY=0.5;entryDx=0;entryDy=0;curved=1;" parent="1" source="dM4KhiI33vJd0EmOxdA6-16" target="dM4KhiI33vJd0EmOxdA6-7" edge="1">
          <mxGeometry relative="1" as="geometry" />
        </mxCell>
        <mxCell id="bSTVENKfb5ki0dsixFxO-5" style="edgeStyle=orthogonalEdgeStyle;rounded=0;orthogonalLoop=1;jettySize=auto;html=1;exitX=0;exitY=0;exitDx=0;exitDy=0;entryX=1;entryY=0.5;entryDx=0;entryDy=0;curved=1;" parent="1" source="dM4KhiI33vJd0EmOxdA6-16" target="bSTVENKfb5ki0dsixFxO-4" edge="1">
          <mxGeometry relative="1" as="geometry" />
        </mxCell>
        <mxCell id="78hAStuYmaCszkkr5jn1-2" style="edgeStyle=orthogonalEdgeStyle;rounded=0;orthogonalLoop=1;jettySize=auto;html=1;exitX=1;exitY=0.5;exitDx=0;exitDy=0;entryX=0;entryY=0.5;entryDx=0;entryDy=0;curved=1;" edge="1" parent="1" source="dM4KhiI33vJd0EmOxdA6-16" target="dM4KhiI33vJd0EmOxdA6-2">
          <mxGeometry relative="1" as="geometry" />
        </mxCell>
        <mxCell id="dM4KhiI33vJd0EmOxdA6-16" value="" style="ellipse;whiteSpace=wrap;html=1;fillColor=none;rounded=1;" parent="1" vertex="1">
          <mxGeometry x="460" y="230" width="360" height="170" as="geometry" />
        </mxCell>
        <mxCell id="78hAStuYmaCszkkr5jn1-4" style="edgeStyle=orthogonalEdgeStyle;rounded=0;orthogonalLoop=1;jettySize=auto;html=1;entryX=0;entryY=0.5;entryDx=0;entryDy=0;curved=1;" edge="1" parent="1" source="Vhc87LM3Tn9fcRq7plBE-1" target="Vhc87LM3Tn9fcRq7plBE-4">
          <mxGeometry relative="1" as="geometry" />
        </mxCell>
        <mxCell id="Vhc87LM3Tn9fcRq7plBE-1" value="Permit Holder" style="shape=umlActor;verticalLabelPosition=bottom;verticalAlign=top;html=1;rounded=1;" parent="1" vertex="1">
          <mxGeometry x="280" y="90" width="30" height="60" as="geometry" />
        </mxCell>
        <mxCell id="Vhc87LM3Tn9fcRq7plBE-2" value="Entry" style="rounded=1;whiteSpace=wrap;html=1;fillColor=#ffff88;strokeColor=#36393d;" parent="1" vertex="1">
          <mxGeometry x="505" y="285" width="120" height="60" as="geometry" />
        </mxCell>
        <mxCell id="dM4KhiI33vJd0EmOxdA6-32" style="edgeStyle=orthogonalEdgeStyle;rounded=1;orthogonalLoop=1;jettySize=auto;html=1;exitX=1;exitY=0.5;exitDx=0;exitDy=0;curved=1;entryX=0;entryY=0;entryDx=0;entryDy=0;" parent="1" source="Vhc87LM3Tn9fcRq7plBE-4" target="dM4KhiI33vJd0EmOxdA6-16" edge="1">
          <mxGeometry relative="1" as="geometry" />
        </mxCell>
        <mxCell id="Vhc87LM3Tn9fcRq7plBE-4" value="Drive to entry gate" style="rounded=1;whiteSpace=wrap;html=1;fillColor=#dae8fc;strokeColor=#6c8ebf;" parent="1" vertex="1">
          <mxGeometry x="350" y="130" width="120" height="60" as="geometry" />
        </mxCell>
        <mxCell id="dM4KhiI33vJd0EmOxdA6-78" style="edgeStyle=orthogonalEdgeStyle;rounded=1;orthogonalLoop=1;jettySize=auto;html=1;exitX=1;exitY=0.5;exitDx=0;exitDy=0;entryX=0;entryY=0.5;entryDx=0;entryDy=0;curved=1;" parent="1" source="dM4KhiI33vJd0EmOxdA6-2" target="dM4KhiI33vJd0EmOxdA6-4" edge="1">
          <mxGeometry relative="1" as="geometry" />
        </mxCell>
        <mxCell id="dM4KhiI33vJd0EmOxdA6-2" value="Open Gate" style="rounded=1;whiteSpace=wrap;html=1;fillColor=#dae8fc;strokeColor=#6c8ebf;" parent="1" vertex="1">
          <mxGeometry x="890" y="270" width="120" height="60" as="geometry" />
        </mxCell>
        <mxCell id="dM4KhiI33vJd0EmOxdA6-4" value="Gate Opens" style="rounded=1;whiteSpace=wrap;html=1;fillColor=#ffe6cc;strokeColor=#d79b00;" parent="1" vertex="1">
          <mxGeometry x="1040" y="270" width="120" height="60" as="geometry" />
        </mxCell>
        <mxCell id="dM4KhiI33vJd0EmOxdA6-68" style="edgeStyle=orthogonalEdgeStyle;rounded=1;orthogonalLoop=1;jettySize=auto;html=1;exitX=1;exitY=0.5;exitDx=0;exitDy=0;curved=1;entryX=0.5;entryY=1;entryDx=0;entryDy=0;" parent="1" source="dM4KhiI33vJd0EmOxdA6-7" target="bSTVENKfb5ki0dsixFxO-10" edge="1">
          <mxGeometry relative="1" as="geometry">
            <mxPoint x="910" y="120" as="targetPoint" />
          </mxGeometry>
        </mxCell>
        <mxCell id="dM4KhiI33vJd0EmOxdA6-7" value="Send transponder and license plate" style="rounded=1;whiteSpace=wrap;html=1;fillColor=#dae8fc;strokeColor=#6c8ebf;" parent="1" vertex="1">
          <mxGeometry x="770" y="70" width="120" height="60" as="geometry" />
        </mxCell>
        <mxCell id="dM4KhiI33vJd0EmOxdA6-67" style="edgeStyle=orthogonalEdgeStyle;rounded=1;orthogonalLoop=1;jettySize=auto;html=1;exitX=0;exitY=0.5;exitDx=0;exitDy=0;entryX=1;entryY=0;entryDx=0;entryDy=0;curved=1;" parent="1" source="dM4KhiI33vJd0EmOxdA6-10" target="dM4KhiI33vJd0EmOxdA6-16" edge="1">
          <mxGeometry relative="1" as="geometry" />
        </mxCell>
        <mxCell id="dM4KhiI33vJd0EmOxdA6-10" value="Permit validity" style="rounded=1;whiteSpace=wrap;html=1;fillColor=#ffe6cc;strokeColor=#d79b00;" parent="1" vertex="1">
          <mxGeometry x="835" y="160" width="120" height="60" as="geometry" />
        </mxCell>
        <mxCell id="dM4KhiI33vJd0EmOxdA6-11" value="Permit" style="rounded=1;whiteSpace=wrap;html=1;fillColor=#ffff88;strokeColor=#36393d;" parent="1" vertex="1">
          <mxGeometry x="830" y="-190" width="120" height="60" as="geometry" />
        </mxCell>
        <mxCell id="dM4KhiI33vJd0EmOxdA6-91" value="Entry Control" style="text;html=1;align=center;verticalAlign=middle;whiteSpace=wrap;rounded=0;" parent="1" vertex="1">
          <mxGeometry x="530" y="200" width="60" height="30" as="geometry" />
        </mxCell>
        <mxCell id="bSTVENKfb5ki0dsixFxO-1" value="Transponder/Vehicle linking to Permit" style="rounded=1;whiteSpace=wrap;html=1;fillColor=#e1d5e7;strokeColor=#9673a6;" parent="1" vertex="1">
          <mxGeometry x="970" y="-160" width="120" height="60" as="geometry" />
        </mxCell>
        <mxCell id="bSTVENKfb5ki0dsixFxO-3" value="Check Reasons to Allow/Deny Entry" style="rounded=1;whiteSpace=wrap;html=1;fillColor=#e1d5e7;strokeColor=#9673a6;" parent="1" vertex="1">
          <mxGeometry x="635" y="285" width="120" height="60" as="geometry" />
        </mxCell>
        <mxCell id="bSTVENKfb5ki0dsixFxO-4" value="Entry Denial Reason" style="rounded=1;whiteSpace=wrap;html=1;fillColor=#d5e8d4;strokeColor=#82b366;" parent="1" vertex="1">
          <mxGeometry x="350" y="50" width="120" height="60" as="geometry" />
        </mxCell>
        <mxCell id="bSTVENKfb5ki0dsixFxO-6" value="&lt;div&gt;Vehicle&lt;/div&gt;" style="rounded=1;whiteSpace=wrap;html=1;fillColor=#ffff88;strokeColor=#36393d;" parent="1" vertex="1">
          <mxGeometry x="830" y="-125" width="120" height="60" as="geometry" />
        </mxCell>
        <mxCell id="bSTVENKfb5ki0dsixFxO-7" value="Transponder" style="rounded=1;whiteSpace=wrap;html=1;fillColor=#ffff88;strokeColor=#36393d;" parent="1" vertex="1">
          <mxGeometry x="830" y="-60" width="120" height="60" as="geometry" />
        </mxCell>
        <mxCell id="bSTVENKfb5ki0dsixFxO-8" value="Permit is curent" style="rounded=1;whiteSpace=wrap;html=1;fillColor=#e1d5e7;strokeColor=#9673a6;" parent="1" vertex="1">
          <mxGeometry x="970" y="-90" width="120" height="60" as="geometry" />
        </mxCell>
        <mxCell id="bSTVENKfb5ki0dsixFxO-11" value="Permit System" style="text;html=1;align=center;verticalAlign=middle;whiteSpace=wrap;rounded=0;" parent="1" vertex="1">
          <mxGeometry x="765" y="-220" width="60" height="30" as="geometry" />
        </mxCell>
        <mxCell id="bSTVENKfb5ki0dsixFxO-81" value="Domain Event" style="rounded=1;whiteSpace=wrap;html=1;fillColor=#ffe6cc;strokeColor=#d79b00;" parent="1" vertex="1">
          <mxGeometry x="390" y="-215" width="120" height="60" as="geometry" />
        </mxCell>
        <mxCell id="bSTVENKfb5ki0dsixFxO-82" value="Aggregate" style="rounded=1;whiteSpace=wrap;html=1;fillColor=#ffff88;strokeColor=#36393d;" parent="1" vertex="1">
          <mxGeometry x="520" y="-215" width="120" height="60" as="geometry" />
        </mxCell>
        <mxCell id="bSTVENKfb5ki0dsixFxO-83" value="Command" style="rounded=1;whiteSpace=wrap;html=1;fillColor=#dae8fc;strokeColor=#6c8ebf;" parent="1" vertex="1">
          <mxGeometry x="390" y="-145" width="120" height="60" as="geometry" />
        </mxCell>
        <mxCell id="bSTVENKfb5ki0dsixFxO-84" value="View" style="rounded=1;whiteSpace=wrap;html=1;fillColor=#d5e8d4;strokeColor=#82b366;" parent="1" vertex="1">
          <mxGeometry x="520" y="-145" width="120" height="60" as="geometry" />
        </mxCell>
        <mxCell id="bSTVENKfb5ki0dsixFxO-85" value="External System" style="ellipse;whiteSpace=wrap;html=1;fillColor=#f8cecc;strokeColor=#b85450;rounded=1;" parent="1" vertex="1">
          <mxGeometry x="390" y="-75" width="120" height="65" as="geometry" />
        </mxCell>
        <mxCell id="bSTVENKfb5ki0dsixFxO-86" value="Policy" style="rounded=1;whiteSpace=wrap;html=1;fillColor=#e1d5e7;strokeColor=#9673a6;" parent="1" vertex="1">
          <mxGeometry x="520" y="-72.5" width="120" height="60" as="geometry" />
        </mxCell>
        <mxCell id="bSTVENKfb5ki0dsixFxO-87" value="Actor" style="shape=umlActor;verticalLabelPosition=bottom;verticalAlign=top;html=1;rounded=1;" parent="1" vertex="1">
          <mxGeometry x="500" y="-305" width="30" height="60" as="geometry" />
        </mxCell>
        <mxCell id="bSTVENKfb5ki0dsixFxO-88" value="&lt;font style=&quot;font-size: 18px;&quot;&gt;Legend&lt;/font&gt;" style="text;html=1;align=center;verticalAlign=middle;whiteSpace=wrap;rounded=0;" parent="1" vertex="1">
          <mxGeometry x="400" y="-335" width="60" height="30" as="geometry" />
        </mxCell>
        <mxCell id="bSTVENKfb5ki0dsixFxO-89" value="" style="rounded=1;whiteSpace=wrap;html=1;fillColor=none;" parent="1" vertex="1">
          <mxGeometry x="380" y="-340" width="275" height="350" as="geometry" />
        </mxCell>
      </root>
    </mxGraphModel>
  </diagram>
</mxfile>
